# File created by Blade
# Date/Time:  Wed Jan 21 16:14:13 2015
# Frame Rate: 120.000 fps
#------------------------------------------------------
:FULLY-SPECIFIED
:DEGREES
157
root 18.439498 35.689368 -19.755665 -169.856760 -2.370764 -179.258966
Spine -23.170395 1.122594 1.188253
Head 13.321287 -1.147009 -1.074450
LeftShoulder -5.666947 -55.212907 37.960681
LeftArm 41.540797 -9.888936 1.097130
LeftForeArm 0.181626 0.000000 -1.173553
LeftHand 5.110468 -0.000000 11.215313
LeftHandThumb1 -26.253704 0.000000 33.147579
RightShoulder -6.002418 15.796196 -35.760623
RightArm 33.100781 50.378664 -5.688503
RightForeArm -32.034990 -0.000000 5.266833
RightHand -2.126781 0.000000 -16.520824
RightHandThumb1 -24.326973 -0.000000 -32.862282
LeftUpLeg -3.620438 7.980263 -0.776033
LeftLeg -4.413555 -0.000000 0.000000
LeftFoot -19.713108 25.785682 -12.096157
LeftToeBase 25.535263 -0.000000 -0.000000
RightUpLeg -4.610695 -5.540373 1.550639
RightLeg -1.678828 -0.000000 0.000000
RightFoot -21.658487 -28.541429 15.756015
RightToeBase 23.245660 -0.000000 -0.000000
158
root 18.442693 35.690617 -19.756856 -169.981136 -2.422420 -179.244716
Spine -23.036677 1.135970 1.213054
Head 13.398132 -1.143664 -1.106345
LeftShoulder -5.529990 -54.849401 37.440188
LeftArm 40.373002 -9.153020 1.315902
LeftForeArm 0.615982 0.000000 -1.383668
LeftHand 4.701427 0.000000 10.747406
LeftHandThumb1 -26.253704 0.000000 33.147579
RightShoulder -6.043619 15.689640 -35.591087
RightArm 31.941835 49.811791 -5.723850
RightForeArm -32.060032 -0.000000 5.001101
RightHand -2.292792 -0.000000 -15.988895
RightHandThumb1 -24.326973 -0.000000 -32.862282
LeftUpLeg -3.480203 7.876354 -0.722647
LeftLeg -4.444473 -0.000000 0.000000
LeftFoot -19.708249 25.823708 -12.110796
LeftToeBase 25.604135 -0.000000 -0.000000
RightUpLeg -4.490401 -5.564949 1.566630
RightLeg -1.651707 -0.000000 0.000000
RightFoot -21.660142 -28.513092 15.847803
RightToeBase 23.026314 -0.000000 -0.000000
159
root 18.444566 35.692669 -19.758472 -170.109359 -2.499082 -179.257519
Spine -22.892173 1.104021 1.208882
Head 13.454848 -1.132220 -1.102379
LeftShoulder -5.461165 -54.387160 36.950857
LeftArm 39.211326 -8.418577 1.478474
LeftForeArm 1.093227 0.000000 -1.536763
LeftHand 4.463734 -0.000000 10.713625
LeftHandThumb1 -26.253704 0.000000 33.147579
RightShoulder -6.086405 15.551028 -35.405560
RightArm 30.681398 49.187492 -5.785538
RightForeArm -32.133775 -0.000000 4.848260
RightHand -2.457657 -0.000000 -15.458550
RightHandThumb1 -24.326973 -0.000000 -32.862282
LeftUpLeg -3.380198 7.889651 -0.713943
LeftLeg -4.407531 -0.000000 0.000000
LeftFoot -19.677114 25.770197 -12.075556
LeftToeBase 25.581830 -0.000000 -0.000000
RightUpLeg -4.359697 -5.643146 1.552589
RightLeg -1.638264 -0.000000 0.000000
RightFoot -21.700482 -28.535001 15.833968
RightToeBase 23.247440 -0.000000 -0.000000
160
root 18.448169 35.694770 -19.758663 -170.233122 -2.544566 -179.252609
Spine -22.749844 1.096400 1.228165
Head 13.504448 -1.136857 -1.126532
LeftShoulder -5.416754 -53.935243 36.431254
LeftArm 38.062576 -7.567441 1.654825
LeftForeArm 1.312502 -0.000000 -1.656573
LeftHand 4.296848 -0.000000 10.841086
LeftHandThumb1 -26.253704 0.000000 33.147579
RightShoulder -6.194748 15.654995 -35.271797
RightArm 29.509476 48.136127 -5.775707
RightForeArm -32.129579 0.000000 4.721607
RightHand -2.630282 -0.000000 -14.959734
RightHandThumb1 -24.326973 -0.000000 -32.862282
LeftUpLeg -3.265988 7.878160 -0.680493
LeftLeg -4.396771 -0.000000 0.000000
LeftFoot -19.652922 25.729164 -12.080195
LeftToeBase 25.565129 -0.000000 -0.000000
RightUpLeg -4.258964 -5.682120 1.559777
RightLeg -1.579531 -0.000000 0.000000
RightFoot -21.689457 -28.500573 15.816219
RightToeBase 23.173268 -0.000000 -0.000000
161
root 18.450684 35.696852 -19.758978 -170.372347 -2.580564 -179.254543
Spine -22.575700 1.096194 1.236773
Head 13.538453 -1.114802 -1.114394
LeftShoulder -5.417843 -53.390766 35.866632
LeftArm 36.957818 -6.904906 1.763323
LeftForeArm 1.282025 -0.000000 -1.649442
LeftHand 4.063468 0.000000 10.925247
LeftHandThumb1 -26.253704 0.000000 33.147579
RightShoulder -6.278041 15.505616 -35.062243
RightArm 28.223625 47.290020 -5.843229
RightForeArm -32.094710 -0.000000 4.754681
RightHand -2.910053 0.000000 -14.634985
RightHandThumb1 -24.326973 -0.000000 -32.862282
LeftUpLeg -3.124503 7.857069 -0.655063
LeftLeg -4.408595 -0.000000 0.000000
LeftFoot -19.615635 25.725595 -12.075338
LeftToeBase 25.563791 -0.000000 -0.000000
RightUpLeg -4.121004 -5.677809 1.550343
RightLeg -1.567770 -0.000000 0.000000
RightFoot -21.708786 -28.523238 15.863432
RightToeBase 23.193097 -0.000000 -0.000000
162
root 18.454114 35.698943 -19.757485 -170.483609 -2.631605 -179.254477
Spine -22.429765 1.078593 1.254119
Head 13.567329 -1.066342 -1.086570
LeftShoulder -5.426189 -52.799449 35.262664
LeftArm 35.811312 -6.353113 1.807962
LeftForeArm 1.221765 -0.000000 -1.487306
LeftHand 3.908115 -0.000000 10.544980
LeftHandThumb1 -26.253704 0.000000 33.147579
RightShoulder -6.315795 15.175884 -34.748194
RightArm 26.851844 46.528798 -6.090759
RightForeArm -32.216941 -0.000000 4.792038
RightHand -3.263740 -0.000000 -14.046469
RightHandThumb1 -24.326973 -0.000000 -32.862282
LeftUpLeg -3.024913 7.834873 -0.629445
LeftLeg -4.403306 -0.000000 0.000000
LeftFoot -19.593508 25.699577 -12.078920
LeftToeBase 25.559604 -0.000000 -0.000000
RightUpLeg -4.019053 -5.710263 1.551461
RightLeg -1.546806 -0.000000 0.000000
RightFoot -21.728031 -28.526310 15.926502
RightToeBase 23.134395 -0.000000 -0.000000
163
root 18.456822 35.701379 -19.756212 -170.610546 -2.667079 -179.251272
Spine -22.269808 1.050588 1.291452
Head 13.623744 -0.933616 -1.039306
LeftShoulder -5.493785 -52.270377 34.616359
LeftArm 34.724081 -5.579805 1.928310
LeftForeArm 1.122870 0.000000 -1.282458
LeftHand 3.840336 -0.000000 10.295622
LeftHandThumb1 -26.253704 0.000000 33.147579
RightShoulder -6.314689 14.858691 -34.342186
RightArm 25.515604 45.754241 -6.372090
RightForeArm -32.301562 -0.000000 4.919836
RightHand -3.627403 0.000000 -13.453107
RightHandThumb1 -24.326973 -0.000000 -32.862282
LeftUpLeg -2.903125 7.819936 -0.600698
LeftLeg -4.405884 -0.000000 0.000000
LeftFoot -19.541877 25.691346 -12.052628
LeftToeBase 25.508541 -0.000000 -0.000000
RightUpLeg -3.913607 -5.738662 1.551172
RightLeg -1.500124 -0.000000 0.000000
RightFoot -21.729768 -28.527685 15.941723
RightToeBase 23.104350 -0.000000 -0.000000
